<svg width="36.000000" height="36.000000" viewBox="0 0 36 36" fill="none" xmlns="http://www.w3.org/2000/svg" xmlns:xlink="http://www.w3.org/1999/xlink">
	<desc>
			Created with Pixso.
	</desc>
	<defs/>
	<path id="Vector" d="M20.81 10.68C20.42 10.68 20.11 10.99 20.11 11.38C20.11 11.77 20.42 12.09 20.81 12.09C21.2 12.09 21.51 11.77 21.51 11.38C21.51 10.99 21.2 10.68 20.81 10.68Z" fill="#332208" fill-opacity="1.000000" fill-rule="nonzero"/>
	<path id="Vector" d="M16.54 24.41C16.82 24.14 16.82 23.69 16.54 23.42C16.27 23.14 15.82 23.14 15.55 23.42C15.28 23.69 15.28 24.14 15.55 24.41C15.82 24.69 16.27 24.69 16.54 24.41Z" fill="#332208" fill-opacity="1.000000" fill-rule="nonzero"/>
	<path id="Vector" d="M8.09 35.79C8.37 36.06 8.81 36.06 9.09 35.79L12.5 32.44C13.07 31.86 13.25 31 13 30.25L13.73 29.55C14.12 29.17 14.64 28.96 15.19 28.96L24.54 28.96C26.2 28.96 27.77 28.32 28.96 27.16C29 27.12 28.58 27.61 35.33 19.55C36.33 18.36 36.18 16.59 35 15.58C33.82 14.59 32.06 14.73 31.05 15.9L26.9 20.16C26.38 19.52 25.58 19.11 24.72 19.11L16.88 19.11C15.76 18.65 14.58 18.41 13.35 18.41C9.97 18.41 7.01 19.97 5.43 22.91C4.76 22.78 4.05 22.98 3.55 23.49L0.2 26.84C-0.07 27.12 -0.07 27.56 0.2 27.83L8.09 35.79ZM13.35 19.82C14.43 19.82 15.47 20.03 16.45 20.46C16.54 20.5 16.64 20.52 16.73 20.52L24.72 20.52C25.48 20.52 26.12 21.14 26.12 21.93C26.12 22.7 25.49 23.33 24.72 23.33L18.98 23.33C18.59 23.33 18.28 23.65 18.28 24.04C18.28 24.42 18.59 24.74 18.98 24.74L24.72 24.74C26.27 24.74 27.53 23.48 27.53 21.93C27.53 21.8 27.52 21.68 27.5 21.56C31.52 17.43 32.08 16.85 32.11 16.83C32.61 16.23 33.5 16.16 34.09 16.66C34.68 17.16 34.76 18.05 34.26 18.64L27.95 26.18C27.03 27.06 25.82 27.55 24.54 27.55L15.19 27.55C14.28 27.55 13.41 27.9 12.75 28.54L12.16 29.11L6.65 23.61C7.93 21.19 10.35 19.82 13.35 19.82ZM4.54 24.48C4.77 24.25 5.13 24.21 5.41 24.38C5.52 24.45 11.53 30.48 11.57 30.53C11.78 30.8 11.75 31.2 11.51 31.44L8.6 34.3L1.69 27.34L4.54 24.48Z" fill="#332208" fill-opacity="1.000000" fill-rule="nonzero"/>
	<path id="Vector" d="M10.96 14.9L27.84 14.9C29 14.9 29.95 13.95 29.95 12.79C29.95 11.02 29.95 3.38 29.95 2.1C29.95 0.94 29 0 27.84 0L10.96 0C9.8 0 8.85 0.94 8.85 2.1L8.85 12.79C8.85 13.95 9.8 14.9 10.96 14.9ZM28.54 5.62L10.26 5.62L10.26 4.21L28.54 4.21L28.54 5.62ZM27.84 13.49L10.96 13.49C10.58 13.49 10.26 13.18 10.26 12.79L10.26 7.02L28.54 7.02L28.54 12.79C28.54 13.18 28.23 13.49 27.84 13.49ZM10.96 1.4L27.84 1.4C28.23 1.4 28.54 1.72 28.54 2.1L28.54 2.81L10.26 2.81L10.26 2.1C10.26 1.72 10.58 1.4 10.96 1.4Z" fill="#332208" fill-opacity="1.000000" fill-rule="nonzero"/>
	<path id="Vector" d="M26.43 10.68L23.62 10.68C23.23 10.68 22.92 10.99 22.92 11.38C22.92 11.77 23.23 12.09 23.62 12.09L26.43 12.09C26.82 12.09 27.14 11.77 27.14 11.38C27.14 10.99 26.82 10.68 26.43 10.68Z" fill="#332208" fill-opacity="1.000000" fill-rule="nonzero"/>
</svg>
