<svg width="30.000000" height="30.000000" viewBox="0 0 30 30" fill="none" xmlns="http://www.w3.org/2000/svg" xmlns:xlink="http://www.w3.org/1999/xlink">
	<desc>
			Created with Pixso.
	</desc>
	<defs/>
	<path id="facebook" d="M30 15C30 6.71 23.28 0 15 0C6.71 0 0 6.71 0 15C0 23.28 6.71 30 15 30C15.08 30 15.17 30 15.26 29.99L15.26 18.32L12.04 18.32L12.04 14.56L15.26 14.56L15.26 11.8C15.26 8.59 17.22 6.84 20.08 6.84C21.45 6.84 22.62 6.94 22.96 6.99L22.96 10.34L21 10.34C19.44 10.34 19.14 11.08 19.14 12.16L19.14 14.56L22.86 14.56L22.37 18.31L19.14 18.31L19.14 29.41C25.41 27.62 30 21.84 30 15Z" fill="#C5AC2D" fill-opacity="1.000000" fill-rule="nonzero"/>
</svg>
