<svg width="30.000000" height="30.000000" viewBox="0 0 30 30" fill="none" xmlns="http://www.w3.org/2000/svg" xmlns:xlink="http://www.w3.org/1999/xlink">
	<desc>
			Created with Pixso.
	</desc>
	<defs/>
	<path id="Vector" d="M17.87 15C17.87 16.58 16.58 17.87 15 17.87C13.41 17.87 12.12 16.58 12.12 15C12.12 13.41 13.41 12.12 15 12.12C16.58 12.12 17.87 13.41 17.87 15Z" fill="#C5AC2D" fill-opacity="1.000000" fill-rule="nonzero"/>
	<path id="Vector" d="M21.71 9.92C21.57 9.54 21.35 9.2 21.07 8.92C20.79 8.64 20.45 8.42 20.07 8.28C19.77 8.16 19.32 8.02 18.48 7.98C17.57 7.94 17.29 7.93 15 7.93C12.7 7.93 12.42 7.94 11.51 7.98C10.67 8.02 10.22 8.16 9.92 8.28C9.54 8.42 9.2 8.64 8.92 8.92C8.64 9.2 8.42 9.54 8.28 9.92C8.16 10.22 8.02 10.67 7.98 11.51C7.94 12.42 7.93 12.7 7.93 15C7.93 17.29 7.94 17.57 7.98 18.48C8.02 19.32 8.16 19.77 8.28 20.08C8.42 20.45 8.64 20.79 8.92 21.07C9.2 21.35 9.54 21.57 9.91 21.71C10.22 21.83 10.67 21.97 11.51 22.01C12.42 22.05 12.69 22.06 14.99 22.06C17.29 22.06 17.57 22.05 18.48 22.01C19.32 21.97 19.77 21.83 20.07 21.71C20.83 21.42 21.42 20.83 21.71 20.08C21.83 19.77 21.97 19.32 22.01 18.48C22.05 17.57 22.06 17.29 22.06 15C22.06 12.7 22.05 12.42 22.01 11.51C21.97 10.67 21.83 10.22 21.71 9.92ZM15 19.42C12.55 19.42 10.57 17.44 10.57 15C10.57 12.55 12.55 10.57 15 10.57C17.44 10.57 19.42 12.55 19.42 15C19.42 17.44 17.44 19.42 15 19.42ZM19.59 11.43C19.02 11.43 18.56 10.97 18.56 10.4C18.56 9.83 19.02 9.36 19.59 9.36C20.16 9.36 20.63 9.83 20.63 10.4C20.63 10.97 20.16 11.43 19.59 11.43Z" fill="#C5AC2D" fill-opacity="1.000000" fill-rule="nonzero"/>
	<path id="Vector" d="M15 0C6.71 0 0 6.71 0 15C0 23.28 6.71 30 15 30C23.28 30 30 23.28 30 15C30 6.71 23.28 0 15 0ZM23.56 18.55C23.51 19.46 23.37 20.09 23.16 20.64C22.71 21.79 21.79 22.71 20.64 23.16C20.09 23.37 19.46 23.51 18.55 23.56C17.63 23.6 17.33 23.61 15 23.61C12.66 23.61 12.36 23.6 11.44 23.56C10.53 23.51 9.9 23.37 9.35 23.16C8.78 22.94 8.26 22.6 7.83 22.16C7.39 21.73 7.05 21.21 6.83 20.64C6.62 20.09 6.48 19.46 6.43 18.55C6.39 17.63 6.38 17.33 6.38 15C6.38 12.66 6.39 12.36 6.43 11.44C6.48 10.53 6.62 9.9 6.83 9.35C7.05 8.78 7.39 8.26 7.83 7.83C8.26 7.39 8.78 7.05 9.35 6.83C9.9 6.62 10.53 6.48 11.44 6.43C12.36 6.39 12.66 6.38 15 6.38C17.33 6.38 17.63 6.39 18.55 6.43C19.46 6.48 20.09 6.62 20.64 6.83C21.21 7.05 21.73 7.39 22.16 7.83C22.6 8.26 22.94 8.78 23.16 9.35C23.37 9.9 23.51 10.53 23.56 11.44C23.6 12.36 23.61 12.66 23.61 15C23.61 17.33 23.6 17.63 23.56 18.55Z" fill="#C5AC2D" fill-opacity="1.000000" fill-rule="nonzero"/>
</svg>
