<svg width="60" height="60" viewBox="0 0 60 60" fill="none" xmlns="http://www.w3.org/2000/svg">
<g clip-path="url(#clip0_509_244)">
<path d="M38.4543 47.9096H5.5759C3.47063 47.9096 1.75781 46.1969 1.75781 44.0916V17.7887C1.75781 15.6834 3.47063 13.9707 5.5759 13.9707C6.06129 13.9707 6.4548 13.5772 6.4548 13.0918C6.4548 12.6063 6.06129 12.2129 5.5759 12.2129C2.50137 12.2129 0 14.7141 0 17.7887V44.0916C0 47.1662 2.50137 49.6674 5.5759 49.6674H38.4543C38.9396 49.6674 39.3332 49.274 39.3332 48.7885C39.3332 48.3032 38.9396 47.9096 38.4543 47.9096Z" fill="#C5AC2D"/>
<path d="M54.424 12.2129H25.3027C24.8173 12.2129 24.4238 12.6063 24.4238 13.0918C24.4238 13.5772 24.8173 13.9707 25.3027 13.9707H54.424C56.5292 13.9707 58.242 15.6834 58.242 17.7887V44.0916C58.242 46.1969 56.5292 47.9096 54.424 47.9096H53.4846C52.9992 47.9096 52.6057 48.3031 52.6057 48.7885C52.6057 49.274 52.9992 49.6674 53.4846 49.6674H54.424C57.4985 49.6674 59.9999 47.1662 59.9999 44.0916V17.7887C59.9999 14.7141 57.4985 12.2129 54.424 12.2129Z" fill="#C5AC2D"/>
<path d="M9.3335 13.9704C11.9567 13.9704 14.091 16.1045 14.091 18.7278C14.091 19.2132 14.4845 19.6067 14.9699 19.6067C15.4553 19.6067 15.8488 19.2132 15.8488 18.7278C15.8488 16.1046 17.983 13.9704 20.6062 13.9704C21.0916 13.9704 21.4851 13.5768 21.4851 13.0914C21.4851 12.6059 21.0916 12.2125 20.6062 12.2125C17.983 12.2125 15.8488 10.0783 15.8488 7.45508C15.8488 6.96969 15.4553 6.57617 14.9699 6.57617C14.4845 6.57617 14.091 6.96969 14.091 7.45508C14.091 10.0783 11.9569 12.2125 9.3335 12.2125C8.84811 12.2125 8.45459 12.6059 8.45459 13.0914C8.45459 13.5768 8.84811 13.9704 9.3335 13.9704ZM14.9699 10.7205C15.5404 11.7016 16.3597 12.5209 17.3408 13.0914C16.3597 13.6619 15.5404 14.4813 14.9699 15.4623C14.3993 14.4813 13.58 13.6619 12.599 13.0914C13.5799 12.5209 14.3993 11.7016 14.9699 10.7205Z" fill="#C5AC2D"/>
<path d="M49.727 47.9089C48.1397 47.9089 46.8484 46.6175 46.8484 45.0303C46.8484 44.5449 46.4549 44.1514 45.9695 44.1514C45.4841 44.1514 45.0906 44.5449 45.0906 45.0303C45.0906 46.6176 43.7992 47.9089 42.2119 47.9089C41.7265 47.9089 41.333 48.3024 41.333 48.7878C41.333 49.2733 41.7265 49.6667 42.2119 49.6667C43.7992 49.6667 45.0906 50.9581 45.0906 52.5454C45.0906 53.0308 45.4841 53.4243 45.9695 53.4243C46.4549 53.4243 46.8484 53.0308 46.8484 52.5454C46.8484 50.9581 48.1398 49.6667 49.727 49.6667C50.2124 49.6667 50.6059 49.2733 50.6059 48.7878C50.6059 48.3025 50.2124 47.9089 49.727 47.9089ZM45.9694 49.832C45.679 49.431 45.3262 49.0782 44.9252 48.7878C45.3261 48.4974 45.679 48.1445 45.9694 47.7436C46.2598 48.1445 46.6127 48.4975 47.0137 48.7878C46.6127 49.0782 46.2598 49.4311 45.9694 49.832Z" fill="#C5AC2D"/>
<path d="M13.2759 22.5459C12.7905 22.5459 12.397 22.9394 12.397 23.4248V38.4424C12.397 38.8705 12.7054 39.2362 13.1273 39.3086C13.1883 39.3191 13.2767 39.3343 14.907 39.3343C15.6983 39.3343 16.8531 39.3307 18.544 39.3213C19.0294 39.3186 19.4207 38.9228 19.418 38.4375C19.4153 37.9537 19.0224 37.5635 18.5392 37.5635C18.5376 37.5635 18.5358 37.5635 18.5342 37.5635C17.2014 37.5709 15.2498 37.5784 14.1549 37.5757V23.4248C14.1548 22.9394 13.7613 22.5459 13.2759 22.5459Z" fill="#C5AC2D"/>
<path d="M37.2863 39.1737C37.4402 39.2821 37.6168 39.3343 37.7918 39.3343C38.068 39.3343 38.3399 39.2044 38.5111 38.9615L43.4622 31.9332L48.4062 38.9609C48.5773 39.2042 48.8494 39.3343 49.1258 39.3343C49.3005 39.3343 49.477 39.2822 49.6308 39.1741C50.0278 38.8948 50.1232 38.3465 49.8439 37.9496L44.5377 30.4067L49.0996 23.9311C49.379 23.5343 49.284 22.986 48.8872 22.7064C48.4904 22.4268 47.9421 22.5219 47.6625 22.9187L43.4633 28.8794L39.2705 22.9192C38.9911 22.5221 38.4429 22.4268 38.0458 22.706C37.6488 22.9853 37.5534 23.5336 37.8327 23.9305L42.3879 30.4059L37.074 37.949C36.7945 38.3459 36.8896 38.8942 37.2863 39.1737Z" fill="#C5AC2D"/>
<path d="M24.7423 38.4034C25.7063 39.0193 26.7971 39.3323 27.9847 39.334H27.9946C29.0264 39.334 29.9918 39.1112 30.8641 38.672C33.0336 37.5793 34.1803 35.8796 34.1803 33.7564V23.4248C34.1803 22.9394 33.7868 22.5459 33.3014 22.5459C32.816 22.5459 32.4225 22.9394 32.4225 23.4248V33.7564C32.4225 35.2115 31.6541 36.3059 30.0735 37.102C29.4485 37.4168 28.7491 37.5763 27.9943 37.5761C27.9919 37.5761 27.9894 37.5761 27.987 37.5761C27.1393 37.575 26.366 37.3549 25.6886 36.922C24.3202 36.0478 23.7363 35.1042 23.7363 33.7672V23.4248C23.7363 22.9394 23.3428 22.5459 22.8574 22.5459C22.372 22.5459 21.9785 22.9394 21.9785 23.4248V33.7672C21.9786 35.6988 22.8826 37.2152 24.7423 38.4034Z" fill="#C5AC2D"/>
</g>
<defs>
<clipPath id="clip0_509_244">
<rect width="60" height="60" fill="white"/>
</clipPath>
</defs>
</svg>
