<svg width="47.000000" height="32.000000" viewBox="0 0 47 32" fill="none" xmlns="http://www.w3.org/2000/svg" xmlns:xlink="http://www.w3.org/1999/xlink">
	<desc>
			Created with Pixso.
	</desc>
	<defs/>
	<path id="Vector" d="M27.71 6.34C27.71 5.56 27.48 4.8 27.06 4.15C26.63 3.5 26.02 2.99 25.31 2.69C24.6 2.39 23.82 2.31 23.06 2.46C22.31 2.61 21.61 2.99 21.07 3.54C20.52 4.09 20.15 4.79 20 5.56C19.85 6.33 19.93 7.12 20.22 7.84C20.52 8.57 21.01 9.18 21.65 9.62C22.29 10.05 23.05 10.28 23.82 10.28C24.85 10.28 25.84 9.87 26.57 9.13C27.29 8.39 27.71 7.39 27.71 6.34ZM23.82 9.12C23.28 9.12 22.75 8.95 22.3 8.65C21.85 8.34 21.5 7.91 21.3 7.4C21.09 6.89 21.04 6.33 21.15 5.8C21.25 5.26 21.51 4.77 21.9 4.38C22.28 3.99 22.77 3.73 23.3 3.62C23.83 3.51 24.38 3.57 24.88 3.78C25.37 3.99 25.8 4.35 26.1 4.8C26.4 5.26 26.56 5.8 26.56 6.34C26.56 7.08 26.27 7.79 25.75 8.31C25.24 8.83 24.54 9.12 23.82 9.12Z" fill="#332208" fill-opacity="1.000000" fill-rule="nonzero"/>
	<path id="Vector" d="M11.17 16.1C10.64 16.1 10.12 16.26 9.68 16.56C9.24 16.87 8.89 17.29 8.69 17.79C8.49 18.29 8.44 18.84 8.54 19.36C8.64 19.89 8.9 20.38 9.28 20.76C9.65 21.14 10.13 21.4 10.65 21.5C11.17 21.61 11.71 21.55 12.2 21.35C12.69 21.14 13.11 20.79 13.41 20.34C13.7 19.89 13.86 19.37 13.86 18.83C13.86 18.1 13.58 17.41 13.07 16.9C12.57 16.39 11.88 16.1 11.17 16.1ZM11.17 20.39C10.86 20.39 10.57 20.3 10.31 20.13C10.06 19.95 9.87 19.71 9.75 19.42C9.63 19.14 9.6 18.82 9.66 18.52C9.72 18.22 9.87 17.94 10.09 17.72C10.3 17.5 10.58 17.35 10.88 17.29C11.17 17.24 11.48 17.27 11.77 17.39C12.05 17.5 12.29 17.7 12.46 17.96C12.62 18.22 12.71 18.52 12.71 18.83C12.71 19.24 12.55 19.64 12.26 19.94C11.97 20.23 11.58 20.39 11.17 20.39L11.17 20.39Z" fill="#332208" fill-opacity="1.000000" fill-rule="nonzero"/>
	<path id="Vector" d="M28.18 21.17C27.72 21.17 27.28 21.31 26.9 21.57C26.52 21.83 26.23 22.19 26.06 22.62C25.88 23.05 25.84 23.51 25.93 23.97C26.02 24.42 26.24 24.84 26.56 25.16C26.88 25.49 27.29 25.71 27.74 25.8C28.18 25.89 28.65 25.84 29.07 25.67C29.49 25.49 29.85 25.19 30.1 24.81C30.35 24.42 30.49 23.97 30.49 23.51C30.49 22.89 30.24 22.29 29.81 21.86C29.38 21.42 28.79 21.17 28.18 21.17ZM28.18 24.68C27.95 24.68 27.73 24.61 27.54 24.48C27.35 24.35 27.2 24.17 27.12 23.95C27.03 23.74 27.01 23.5 27.05 23.28C27.1 23.05 27.21 22.84 27.37 22.68C27.53 22.51 27.74 22.4 27.96 22.36C28.19 22.31 28.42 22.34 28.63 22.43C28.84 22.51 29.02 22.66 29.15 22.86C29.27 23.05 29.34 23.28 29.34 23.51C29.34 23.82 29.22 24.12 29 24.34C28.78 24.56 28.49 24.68 28.18 24.68L28.18 24.68Z" fill="#332208" fill-opacity="1.000000" fill-rule="nonzero"/>
	<path id="Vector" d="M40.44 13.21C40.89 13.21 41.34 13.07 41.71 12.82C42.09 12.56 42.39 12.19 42.56 11.77C42.73 11.34 42.78 10.87 42.69 10.42C42.6 9.96 42.38 9.55 42.06 9.22C41.74 8.9 41.33 8.67 40.88 8.58C40.43 8.49 39.97 8.54 39.55 8.72C39.13 8.9 38.77 9.19 38.52 9.58C38.26 9.96 38.13 10.41 38.13 10.88C38.13 11.5 38.37 12.09 38.81 12.53C39.24 12.97 39.83 13.21 40.44 13.21ZM40.44 9.7C40.67 9.7 40.89 9.77 41.08 9.9C41.27 10.03 41.41 10.22 41.5 10.43C41.59 10.65 41.61 10.88 41.56 11.11C41.52 11.34 41.41 11.54 41.25 11.71C41.09 11.87 40.88 11.98 40.66 12.03C40.43 12.07 40.2 12.05 39.99 11.96C39.78 11.87 39.6 11.72 39.47 11.53C39.34 11.34 39.28 11.11 39.28 10.88C39.28 10.56 39.4 10.27 39.62 10.05C39.84 9.83 40.13 9.7 40.44 9.7Z" fill="#332208" fill-opacity="1.000000" fill-rule="nonzero"/>
	<path id="Vector" d="M42.11 15.47L43.62 13.42C44.2 12.65 44.49 11.69 44.44 10.72C44.3 8.6 42.59 6.94 40.55 6.94C38.5 6.94 36.79 8.6 36.66 10.72C36.63 11.2 36.69 11.68 36.83 12.14L27.38 12.32L28.84 10.34C29.77 9.11 30.23 7.58 30.14 6.03C30.04 4.44 29.38 2.95 28.27 1.82C27.7 1.24 27.03 0.78 26.28 0.47C25.54 0.16 24.74 0 23.94 0C23.13 0 22.33 0.16 21.59 0.47C20.84 0.78 20.17 1.24 19.6 1.82C18.5 2.95 17.83 4.44 17.73 6.03C17.63 7.51 18.09 9.04 19.04 10.34L20.3 12.05L6.86 12.14C6.74 12.14 6.63 12.18 6.53 12.25C6.44 12.32 6.36 12.42 6.32 12.53L0.03 31.23C0 31.31 -0.01 31.41 0 31.5C0.01 31.59 0.05 31.68 0.1 31.75C0.15 31.83 0.22 31.89 0.31 31.93C0.39 31.97 0.48 32 0.57 32L46.42 32C46.51 32 46.6 31.97 46.68 31.93C46.76 31.89 46.83 31.83 46.88 31.76C46.94 31.68 46.97 31.6 46.99 31.51C47 31.42 47 31.33 46.97 31.24L42.11 15.47ZM37.8 10.8C37.88 9.47 38.93 8.11 40.55 8.11C42.16 8.11 43.21 9.48 43.29 10.8C43.33 11.49 43.12 12.17 42.7 12.72L40.55 15.64L38.39 12.73C37.98 12.17 37.77 11.49 37.8 10.8L37.8 10.8ZM37.38 13.29C37.41 13.34 37.44 13.38 37.47 13.42L40.09 16.96C40.14 17.03 40.21 17.09 40.29 17.13C40.37 17.17 40.46 17.19 40.55 17.19C40.63 17.19 40.72 17.17 40.8 17.13C40.88 17.09 40.95 17.03 41 16.96L41.26 16.61L41.91 18.73L33.03 18.73L32.38 13.39L37.38 13.29ZM19.96 9.65C19.18 8.57 18.79 7.31 18.87 6.1C18.96 4.8 19.5 3.57 20.41 2.64C20.87 2.17 21.42 1.8 22.03 1.54C22.63 1.29 23.28 1.16 23.94 1.16C24.59 1.16 25.24 1.29 25.84 1.54C26.45 1.8 27 2.17 27.46 2.64C28.37 3.57 28.92 4.8 29 6.11C29.07 7.38 28.69 8.63 27.92 9.64L23.94 15.03L19.96 9.65ZM1.37 30.83L4.35 22L7.74 21.98L10.84 26.19C10.9 26.26 10.97 26.32 11.05 26.36C11.12 26.4 11.21 26.42 11.3 26.42C11.39 26.42 11.48 26.4 11.56 26.36C11.64 26.32 11.71 26.26 11.76 26.19L14.23 22.84L14.26 30.83L1.37 30.83ZM14.04 21.16L11.3 24.87L8.57 21.17C8.03 20.42 7.76 19.55 7.82 18.72C7.93 17.05 9.26 15.32 11.3 15.32C13.34 15.32 14.68 17.05 14.78 18.72C14.83 19.6 14.57 20.47 14.04 21.16ZM23.07 24.73C23.02 24.79 22.98 24.85 22.95 24.92C22.92 24.99 22.9 25.07 22.9 25.15L22.91 30.83L15.41 30.83L15.38 21.19C15.79 20.41 15.98 19.53 15.93 18.65C15.77 16.13 13.73 14.15 11.3 14.15C8.87 14.15 6.84 16.13 6.68 18.65C6.63 19.39 6.76 20.14 7.06 20.82L4.74 20.83L7.28 13.3L21.15 13.21L23.48 16.35C23.53 16.42 23.6 16.48 23.68 16.52C23.76 16.56 23.85 16.58 23.94 16.58C24.03 16.58 24.11 16.56 24.19 16.52C24.27 16.48 24.34 16.42 24.4 16.35L26.5 13.5L31.23 13.41L31.95 19.38C31.97 19.52 32.03 19.65 32.14 19.75C32.24 19.84 32.38 19.89 32.52 19.89L42.27 19.89L43.71 24.56L32.07 24.58C32.17 24.18 32.21 23.76 32.18 23.35C32.04 21.23 30.33 19.58 28.29 19.58C26.24 19.58 24.54 21.23 24.4 23.35C24.37 23.76 24.41 24.18 24.52 24.58L23.48 24.56C23.41 24.56 23.33 24.58 23.26 24.61C23.19 24.63 23.13 24.68 23.07 24.73ZM30.45 25.35L28.29 28.27L26.14 25.36C25.72 24.81 25.51 24.12 25.54 23.43C25.63 22.11 26.68 20.74 28.29 20.74C29.9 20.74 30.95 22.11 31.03 23.43C31.07 24.12 30.86 24.81 30.45 25.35L30.45 25.35ZM24.05 30.83L24.05 25.74L25.02 25.75C25.08 25.85 25.14 25.95 25.21 26.05L27.83 29.59C27.88 29.66 27.95 29.72 28.03 29.76C28.11 29.8 28.2 29.82 28.29 29.82C28.38 29.82 28.47 29.8 28.55 29.76C28.62 29.72 28.69 29.66 28.75 29.59L31.36 26.05C31.44 25.95 31.51 25.85 31.57 25.74L44.07 25.72L45.64 30.83L24.05 30.83Z" fill="#332208" fill-opacity="1.000000" fill-rule="nonzero"/>
</svg>
