<svg width="25.000000" height="25.000000" viewBox="0 0 25 25" fill="none" xmlns="http://www.w3.org/2000/svg" xmlns:xlink="http://www.w3.org/1999/xlink">
	<desc>
			Created with Pixso.
	</desc>
	<defs/>
	<path id="Vector" d="M12.5 0C5.6 0 0 5.6 0 12.5C0 19.39 5.6 25 12.5 25C19.39 25 25 19.39 25 12.5C25 5.6 19.39 0 12.5 0ZM12.5 23.95C6.18 23.95 1.04 18.81 1.04 12.5C1.04 6.18 6.18 1.04 12.5 1.04C18.81 1.04 23.95 6.18 23.95 12.5C23.95 18.81 18.81 23.95 12.5 23.95Z" fill="#FEFEFE" fill-opacity="1.000000" fill-rule="nonzero"/>
	<path id="Vector" d="M17.46 12.06L10.17 7.37C10.01 7.27 9.81 7.26 9.64 7.35C9.47 7.44 9.37 7.62 9.37 7.81L9.37 17.18C9.37 17.37 9.47 17.55 9.64 17.64C9.72 17.68 9.81 17.7 9.89 17.7C9.99 17.7 10.09 17.68 10.17 17.62L17.46 12.93C17.61 12.84 17.7 12.67 17.7 12.5C17.7 12.32 17.61 12.15 17.46 12.06ZM10.41 16.23L10.41 8.76L16.22 12.5L10.41 16.23Z" fill="#FEFEFE" fill-opacity="1.000000" fill-rule="nonzero"/>
</svg>
