<svg width="60.000000" height="24.000000" viewBox="0 0 60 24" fill="none" xmlns="http://www.w3.org/2000/svg" xmlns:xlink="http://www.w3.org/1999/xlink">
	<desc>
			Created with Pixso.
	</desc>
	<defs/>
	<path id="Vector" d="M25 8.99L28.99 8.99L28.99 10.99L25 10.99L25 8.99Z" fill="#332208" fill-opacity="1.000000" fill-rule="nonzero"/>
	<path id="Vector" d="M59.14 6L52.34 5.03C51.11 4.27 49.82 3.59 48.49 2.99C44.12 1.01 39.37 -0.01 34.56 3.05e-5L33.38 3.05e-5C27.71 0 22.13 1.42 17.15 4.13L13.72 6C9.71 6.05 5.78 7.12 2.29 9.1C0.87 9.92 0 11.42 0 13.06L0 18.99C0 19.55 0.44 19.99 1 19.99L4.35 19.99C5.44 23.11 8.86 24.75 11.97 23.66C13.69 23.06 15.03 21.71 15.64 19.99L42.35 19.99C43.45 23.11 46.86 24.75 49.97 23.66C51.69 23.06 53.04 21.71 53.64 19.99L53.99 19.99C54.12 19.99 54.25 19.97 54.37 19.92L57.61 18.62C59.05 18.05 60 16.65 60 15.09L60 6.99C60 6.5 59.63 6.08 59.14 6ZM13.91 18.79C13.47 20.96 11.36 22.35 9.19 21.91C7.03 21.47 5.63 19.36 6.08 17.19C6.52 15.03 8.63 13.63 10.8 14.07C12.66 14.45 14 16.09 13.99 17.99C13.99 18.26 13.97 18.53 13.91 18.79ZM32 17.99L15.99 17.99C15.99 14.68 13.31 11.99 10 11.99C6.68 11.99 3.99 14.68 3.99 17.99L2 17.99L2 13.06C2 12.14 2.49 11.29 3.28 10.84C6.55 8.98 10.24 8 13.99 7.99L32 7.99L32 17.99ZM32 5.99L17.92 5.99L18.11 5.89C22.39 3.57 27.13 2.25 32 2.04L32 5.99ZM33.99 1.99L34.56 1.99C38.59 1.99 42.58 2.76 46.33 4.25L44.58 5.99L33.99 5.99L33.99 1.99ZM51.91 18.79C51.47 20.96 49.36 22.35 47.19 21.91C45.03 21.47 43.63 19.36 44.08 17.19C44.52 15.03 46.63 13.63 48.8 14.07C50.66 14.45 52 16.09 52 17.99C52 18.26 51.97 18.53 51.91 18.79ZM58 8.99L55 8.99L55 10.99L58 10.99L58 15.09C58 15.83 57.55 16.49 56.86 16.76L53.99 17.92C53.99 17.82 53.98 17.73 53.98 17.64C53.97 17.55 53.97 17.44 53.96 17.34C53.95 17.24 53.93 17.14 53.91 17.04C53.9 16.94 53.88 16.84 53.87 16.75C53.85 16.66 53.82 16.56 53.79 16.46C53.76 16.37 53.74 16.27 53.71 16.18C53.68 16.09 53.65 16 53.61 15.91C53.58 15.82 53.55 15.72 53.51 15.63C53.48 15.54 53.43 15.46 53.39 15.37C53.35 15.29 53.31 15.2 53.26 15.11C53.21 15.02 53.16 14.95 53.11 14.87C53.07 14.79 53.02 14.7 52.96 14.62C52.9 14.54 52.85 14.47 52.79 14.4C52.74 14.32 52.68 14.24 52.61 14.16C52.55 14.08 52.49 14.02 52.43 13.96C52.36 13.9 52.29 13.81 52.23 13.74C52.16 13.67 52.09 13.62 52.02 13.55C51.95 13.49 51.88 13.42 51.8 13.35C51.73 13.29 51.65 13.24 51.57 13.18C51.5 13.13 51.42 13.06 51.34 13.01C51.26 12.96 51.17 12.91 51.08 12.86C51 12.8 50.93 12.76 50.85 12.71C50.77 12.67 50.67 12.62 50.57 12.58C50.48 12.54 50.41 12.5 50.32 12.46C50.24 12.43 50.12 12.39 50.02 12.35C49.92 12.32 49.86 12.29 49.77 12.26C49.66 12.23 49.54 12.2 49.43 12.17C49.35 12.15 49.28 12.13 49.2 12.11C49.08 12.09 48.95 12.07 48.83 12.06C48.75 12.05 48.68 12.03 48.61 12.02C48.41 12 48.21 11.99 48 11.99C44.69 12 42 14.68 42 17.99L34 17.99L34 7.99L45 7.99C45.26 7.99 45.51 7.89 45.7 7.7L48.3 5.11C49.38 5.63 50.44 6.2 51.47 6.84C51.58 6.92 51.72 6.96 51.85 6.98L58 7.86L58 8.99Z" fill="#332208" fill-opacity="1.000000" fill-rule="nonzero"/>
</svg>
